<?xml version="1.0" encoding="UTF-8"?>
<!DOCTYPE svg PUBLIC "-//W3C//DTD SVG 1.1//EN" "http://www.w3.org/Graphics/SVG/1.1/DTD/svg11.dtd">
<!-- Creator: CorelDRAW 2020 (64 Bit) -->
<svg xmlns="http://www.w3.org/2000/svg" xml:space="preserve" width="950px" height="216px" version="1.1" style="shape-rendering:geometricPrecision; text-rendering:geometricPrecision; image-rendering:optimizeQuality; fill-rule:evenodd; clip-rule:evenodd"
viewBox="0 0 857.31 195.24"
 xmlns:xlink="http://www.w3.org/1999/xlink"
 xmlns:xodm="http://www.corel.com/coreldraw/odm/2003">
 <defs>
  <style type="text/css">
   <![CDATA[
    .str0 {stroke:#FEFEFE;stroke-width:10.66;stroke-linecap:round;stroke-linejoin:round;stroke-miterlimit:22.9256}
    .fil0 {fill:none}
    .fil1 {fill:#FEFEFE;fill-rule:nonzero}
   ]]>
  </style>
 </defs>
 <g id="Camada_x0020_1">
  <metadata id="CorelCorpID_0Corel-Layer"/>
  <g id="_2453754906336">
   <g>
    <path class="fil0 str0" d="M41.74 148.08c-12.11,0.55 -33.19,-14.88 -36.34,-37.47 -1.94,-41.45 33.09,-51.6 44.97,-50.35 5.37,-0.18 12.63,1.11 20.47,5.78 9.23,5.5 20.3,13.69 32.4,22.33 7.41,5.28 15.25,10.36 22.98,15.74 11.83,8.22 23.23,16.42 34.08,23.51 2.95,1.92 6.09,3.05 9.01,4.41 5.66,1.19 11.97,2.1 17.73,0.75 3.51,-0.82 6.92,-1.7 9.96,-3.51 2.41,-1.44 4.63,-2.94 6.78,-4.92 17.22,-14.5 13.72,-37.1 5.65,-47.79 -3.06,-4.57 -5.84,-7.4 -9.48,-9.39 -4.4,-2.41 -8.44,-3.91 -12.15,-5.11 24.28,5.34 38.77,25.18 35.9,49.6 -1.79,17.62 -12.61,26.34 -22.34,31.63 -25.77,13.99 -41.9,1.97 -54.86,-6.94 -15.21,-10.92 -30.87,-21.3 -46.1,-31.84 -8.86,-6.13 -17.99,-11.69 -26.89,-18.65 -6.85,-5.36 -13.75,-7.94 -21.51,-8.65 -16.07,-0.66 -28.07,7.71 -34.31,19.25l-0.08 0c-1.41,3.43 -2.56,6.69 -3.18,9.79 -1.6,8.07 -0.64,14.73 1.2,19.41 2.61,6.67 7.41,12.33 12.41,16.49 4.96,4.14 10.87,5.24 13.7,5.93z"/>
    <path class="fil0 str0" d="M186.7 149.6c-14.96,24.16 -41.47,40.31 -71.88,40.31 -10.23,0 -21.23,-1.84 -31.79,-6.13 -7.71,-3.13 -15.29,-7.8 -21.62,-12.89 -2.61,-2.1 -5.52,-4.5 -7.27,-6.32 -10.67,-11.06 -16.76,-23.55 -20.12,-34.41 -2.97,-9.58 -2.72,-18.33 -0.05,-23.55 4.77,-12.38 11.98,-16.13 20.02,-19.23 11.55,-4.31 20.34,0.01 25.38,2.7m74.46 32.69c14.7,5.69 33.97,0.87 42.02,-19.41 5.54,-13.96 -4.42,-38.12 -15.85,-51.75 -16.44,-19.6 -39.75,-30.96 -65.18,-31.23 -7.46,-0.08 -22.19,1.14 -36.78,8.41 -13.71,6.83 -27.29,19.34 -34.6,30.72"/>
   </g>
   <path class="fil1" d="M418.18 0l18.15 0 -20.57 22.01 -11 0 13.42 -22.01z"/>
   <path class="fil1" d="M264.24 151.31l18.38 0 0 6.27 -12.01 0 0 6.08 12.01 0 0 6.17 -12.01 0 0 8.85 12.01 0 0 6.3 -18.38 0 0 -33.67zm24.38 0l6.13 0 14.45 22.15 0 -22.15 6.4 0 0 33.67 -6.15 0 -14.43 -22.09 0 22.09 -6.4 0 0 -33.67zm65.74 5.49l-4.51 4.47c-2.86,-3.03 -6.18,-4.53 -9.99,-4.53 -3.31,0 -6.08,1.09 -8.32,3.29 -2.23,2.2 -3.35,4.87 -3.35,8.01 0,3.25 1.16,6.01 3.48,8.27 2.32,2.26 5.18,3.38 8.59,3.38 2.21,0 4.08,-0.46 5.59,-1.39 1.52,-0.94 2.74,-2.39 3.68,-4.38l-9.75 0 0 -6.02 16.93 0 0.04 1.42c0,2.95 -0.76,5.74 -2.28,8.38 -1.53,2.64 -3.5,4.66 -5.92,6.04 -2.43,1.39 -5.28,2.08 -8.55,2.08 -3.49,0 -6.61,-0.75 -9.35,-2.27 -2.74,-1.51 -4.9,-3.68 -6.5,-6.49 -1.59,-2.81 -2.39,-5.84 -2.39,-9.09 0,-4.45 1.47,-8.33 4.41,-11.63 3.51,-3.92 8.05,-5.88 13.65,-5.88 2.93,0 5.67,0.54 8.22,1.63 2.15,0.91 4.25,2.48 6.32,4.71zm8.3 -5.49l18.39 0 0 6.27 -12.02 0 0 6.08 12.02 0 0 6.17 -12.02 0 0 8.85 12.02 0 0 6.3 -18.39 0 0 -33.67zm24.38 0l6.13 0 14.45 22.15 0 -22.15 6.41 0 0 33.67 -6.16 0 -14.42 -22.09 0 22.09 -6.41 0 0 -33.67zm34.63 0l6.5 0 0 12.7 11.26 0 0 -12.7 6.48 0 0 33.67 -6.48 0 0 -14.77 -11.26 0 0 14.77 -6.5 0 0 -33.67zm42.16 0l6.5 0 12.96 33.67 -6.66 0 -2.64 -6.94 -13.73 0 -2.75 6.94 -6.65 0 12.97 -33.67zm3.3 8.93l-4.49 11.55 8.95 0 -4.46 -11.55zm21.56 -8.93l6.79 0c3.73,0 6.38,0.33 7.96,0.99 1.58,0.67 2.85,1.77 3.81,3.31 0.96,1.54 1.44,3.37 1.44,5.47 0,2.22 -0.52,4.06 -1.59,5.55 -1.06,1.49 -2.66,2.61 -4.79,3.38l7.96 14.97 -7 0 -7.58 -14.26 -0.6 0 0 14.26 -6.4 0 0 -33.67zm6.4 13.16l2.02 0c2.05,0 3.45,-0.27 4.23,-0.81 0.76,-0.53 1.15,-1.41 1.15,-2.64 0,-0.74 -0.19,-1.38 -0.57,-1.92 -0.39,-0.54 -0.9,-0.93 -1.54,-1.16 -0.64,-0.24 -1.81,-0.36 -3.52,-0.36l-1.77 0 0 6.89zm19.9 -13.16l6.36 0 0 33.67 -6.36 0 0 -33.67zm23.83 0l6.5 0 12.95 33.67 -6.66 0 -2.64 -6.94 -13.72 0 -2.75 6.94 -6.66 0 12.98 -33.67zm3.29 8.93l-4.49 11.55 8.95 0 -4.46 -11.55zm65.19 -3.01l-4.49 4.29c-3.05,-3.22 -6.48,-4.83 -10.29,-4.83 -3.23,0 -5.94,1.1 -8.14,3.29 -2.21,2.2 -3.31,4.91 -3.31,8.13 0,2.24 0.49,4.23 1.46,5.97 0.98,1.74 2.36,3.11 4.14,4.1 1.79,0.99 3.78,1.49 5.96,1.49 1.85,0 3.56,-0.35 5.11,-1.04 1.54,-0.69 3.23,-1.96 5.07,-3.79l4.36 4.53c-2.5,2.43 -4.85,4.11 -7.06,5.05 -2.21,0.93 -4.73,1.4 -7.58,1.4 -5.23,0 -9.52,-1.65 -12.85,-4.97 -3.33,-3.32 -5,-7.58 -5,-12.76 0,-3.36 0.76,-6.35 2.28,-8.96 1.52,-2.6 3.69,-4.7 6.53,-6.28 2.82,-1.59 5.87,-2.39 9.14,-2.39 2.78,0 5.45,0.59 8.02,1.77 2.57,1.17 4.79,2.84 6.65,5zm21.51 -6.77c4.77,0 8.87,1.73 12.29,5.17 3.43,3.46 5.14,7.66 5.14,12.61 0,4.92 -1.69,9.08 -5.07,12.48 -3.39,3.4 -7.49,5.1 -12.31,5.1 -5.04,0 -9.24,-1.74 -12.58,-5.24 -3.35,-3.49 -5.02,-7.64 -5.02,-12.45 0,-3.22 0.78,-6.18 2.34,-8.88 1.55,-2.7 3.69,-4.84 6.42,-6.42 2.72,-1.58 5.65,-2.37 8.79,-2.37zm-0.06 6.28c-3.12,0 -5.73,1.08 -7.85,3.24 -2.12,2.17 -3.19,4.93 -3.19,8.26 0,3.73 1.34,6.67 4.01,8.84 2.08,1.69 4.45,2.54 7.14,2.54 3.04,0 5.63,-1.09 7.76,-3.29 2.14,-2.2 3.21,-4.91 3.21,-8.13 0,-3.21 -1.08,-5.91 -3.23,-8.14 -2.15,-2.21 -4.77,-3.32 -7.85,-3.32zm23.55 -5.43l6.14 0 14.44 22.15 0 -22.15 6.41 0 0 33.67 -6.16 0 -14.42 -22.09 0 22.09 -6.41 0 0 -33.67zm52.3 4.57l-4.73 4.19c-1.67,-2.31 -3.36,-3.48 -5.09,-3.48 -0.83,0 -1.52,0.23 -2.06,0.68 -0.53,0.45 -0.8,0.96 -0.8,1.52 0,0.57 0.19,1.1 0.57,1.61 0.53,0.66 2.08,2.12 4.7,4.32 2.43,2.05 3.92,3.34 4.44,3.87 1.29,1.31 2.22,2.57 2.76,3.76 0.53,1.2 0.81,2.51 0.81,3.93 0,2.76 -0.95,5.05 -2.86,6.85 -1.91,1.8 -4.4,2.69 -7.47,2.69 -2.39,0 -4.48,-0.58 -6.25,-1.76 -1.78,-1.17 -3.31,-3.02 -4.57,-5.53l5.38 -3.25c1.62,2.97 3.48,4.46 5.58,4.46 1.1,0 2.02,-0.32 2.77,-0.96 0.75,-0.65 1.12,-1.39 1.12,-2.22 0,-0.77 -0.28,-1.53 -0.85,-2.29 -0.56,-0.77 -1.8,-1.94 -3.72,-3.5 -3.66,-2.99 -6.04,-5.31 -7.1,-6.93 -1.07,-1.63 -1.6,-3.24 -1.6,-4.86 0,-2.34 0.89,-4.34 2.67,-6.01 1.77,-1.67 3.96,-2.51 6.57,-2.51 1.69,0 3.28,0.39 4.8,1.17 1.52,0.77 3.16,2.2 4.93,4.25zm6.5 -4.57l6.43 0 0 21.79c0,1.88 0.17,3.21 0.5,3.98 0.32,0.78 0.86,1.4 1.62,1.87 0.76,0.46 1.67,0.69 2.74,0.69 1.13,0 2.1,-0.25 2.92,-0.77 0.81,-0.52 1.38,-1.18 1.69,-1.99 0.31,-0.79 0.47,-2.32 0.47,-4.58l0 -20.99 6.43 0 0 20.07c0,3.39 -0.19,5.74 -0.57,7.05 -0.38,1.32 -1.11,2.58 -2.19,3.8 -1.07,1.22 -2.32,2.13 -3.71,2.72 -1.41,0.59 -3.05,0.87 -4.9,0.87 -2.45,0 -4.57,-0.56 -6.38,-1.68 -1.81,-1.12 -3.11,-2.52 -3.88,-4.21 -0.78,-1.68 -1.17,-4.54 -1.17,-8.55l0 -20.07zm30.24 0l6.42 0 0 27.56 9.33 0 0 6.11 -15.75 0 0 -33.67zm17.31 0l18.61 0 0 6.32 -6.14 0 0 27.35 -6.5 0 0 -27.35 -5.97 0 0 -6.32zm22.55 0l6.36 0 0 33.67 -6.36 0 0 -33.67zm14.21 0l6.59 0 8.47 23.92 8.58 -23.92 6.6 0 -12.14 33.67 -6.18 0 -11.92 -33.67zm42.45 0l6.5 0 12.95 33.67 -6.66 0 -2.64 -6.94 -13.72 0 -2.75 6.94 -6.66 0 12.98 -33.67zm3.29 8.93l-4.49 11.55 8.95 0 -4.46 -11.55z"/>
   <path class="fil1" d="M261.7 17.64l21.27 0 50.74 77.5 0 -77.5 22.3 0 0 117.77 -21.43 0 -50.57 -77.26 0 77.26 -22.31 0 0 -117.77zm113.86 0l22.47 0 0 76.19c0,6.56 0.58,11.21 1.72,13.91 1.15,2.74 3.04,4.9 5.69,6.54 2.65,1.61 5.85,2.43 9.57,2.43 3.96,0 7.35,-0.9 10.22,-2.73 2.87,-1.81 4.84,-4.11 5.94,-6.92 1.09,-2.79 1.64,-8.15 1.64,-16.05l0 -73.37 22.47 0 0 70.2c0,11.86 -0.66,20.07 -2,24.66 -1.34,4.59 -3.88,9.02 -7.65,13.29 -3.75,4.26 -8.09,7.43 -13.02,9.48 -4.89,2.05 -10.6,3.09 -17.11,3.09 -8.53,0 -15.96,-1.97 -22.28,-5.88 -6.34,-3.93 -10.85,-8.83 -13.59,-14.73 -2.7,-5.91 -4.07,-15.86 -4.07,-29.91l0 -70.2zm207.6 20.66l-15.72 14.93c-10.68,-11.26 -22.69,-16.89 -36.05,-16.89 -11.27,0 -20.78,3.85 -28.49,11.53 -7.74,7.69 -11.59,17.14 -11.59,28.41 0,7.84 1.72,14.81 5.14,20.88 3.42,6.1 8.25,10.88 14.49,14.35 6.26,3.48 13.2,5.2 20.86,5.2 6.5,0 12.46,-1.2 17.85,-3.64 5.41,-2.43 11.34,-6.86 17.79,-13.26l15.23 15.92c-8.69,8.5 -16.92,14.4 -24.66,17.68 -7.73,3.31 -16.59,4.95 -26.52,4.95 -18.31,0 -33.32,-5.79 -44.99,-17.41 -11.68,-11.6 -17.5,-26.49 -17.5,-44.62 0,-11.75 2.65,-22.17 7.98,-31.3 5.31,-9.13 12.91,-16.46 22.83,-22.01 9.9,-5.55 20.56,-8.34 32.01,-8.34 9.71,0 19.06,2.06 28.08,6.16 8.99,4.1 16.76,9.92 23.26,17.46zm13.02 -20.66l22.3 0 0 96.45 32.97 0 0 21.32 -55.27 0 0 -117.77zm66.02 0l64.3 0 0 21.98 -41.99 0 0 21.16 41.99 0 0 21.65 -41.99 0 0 31 41.99 0 0 21.98 -64.3 0 0 -117.77zm134.17 -2.96c16.65,0 30.98,6.05 42.95,18.1 12,12.06 17.99,26.77 17.99,44.1 0,17.19 -5.91,31.74 -17.74,43.63 -11.81,11.89 -26.17,17.85 -43.03,17.85 -17.69,0 -32.37,-6.12 -44.05,-18.34 -11.7,-12.22 -17.55,-26.74 -17.55,-43.55 0,-11.24 2.74,-21.6 8.18,-31.06 5.44,-9.43 12.93,-16.92 22.44,-22.44 9.54,-5.52 19.82,-8.29 30.81,-8.29zm-0.33 21.98c-10.85,0 -19.98,3.8 -27.36,11.38 -7.41,7.57 -11.1,17.19 -11.1,28.89 0,13.02 4.65,23.32 13.97,30.89 7.24,5.94 15.53,8.89 24.9,8.89 10.58,0 19.6,-3.86 27.04,-11.54 7.46,-7.68 11.18,-17.14 11.18,-28.4 0,-11.21 -3.74,-20.7 -11.26,-28.46 -7.49,-7.76 -16.62,-11.65 -27.37,-11.65z"/>
  </g>
 </g>
</svg>
